<?xml version="1.0" encoding="UTF-8" standalone="no"?>
<svg
   xmlns:dc="http://purl.org/dc/elements/1.1/"
   xmlns:cc="http://creativecommons.org/ns#"
   xmlns:rdf="http://www.w3.org/1999/02/22-rdf-syntax-ns#"
   xmlns:svg="http://www.w3.org/2000/svg"
   xmlns="http://www.w3.org/2000/svg"
   width="126.93093mm"
   height="99.396782mm"
   viewBox="0 0 126.93093 99.396783"
   version="1.1"
   id="svg9023">
  <defs
     id="defs9017">
    <rect
       x="38.55357"
       y="64.255951"
       width="140.60715"
       height="99.029762"
       id="rect12-8" />
    <rect
       x="38.55357"
       y="64.255951"
       width="140.60715"
       height="99.029762"
       id="rect10930" />
    <rect
       x="38.55357"
       y="64.255951"
       width="140.60715"
       height="99.029762"
       id="rect12" />
    <rect
       x="38.55357"
       y="64.255951"
       width="140.60715"
       height="99.029762"
       id="rect10933" />
    <rect
       x="38.55357"
       y="64.255951"
       width="140.60715"
       height="99.029762"
       id="rect12-4" />
    <rect
       x="38.55357"
       y="64.255951"
       width="140.60715"
       height="99.029762"
       id="rect10936" />
    <rect
       x="38.55357"
       y="64.255951"
       width="140.60715"
       height="99.029762"
       id="rect12-8-5" />
    <rect
       x="38.55357"
       y="64.255951"
       width="140.60715"
       height="99.029762"
       id="rect11014" />
    <rect
       x="38.55357"
       y="64.255951"
       width="140.60715"
       height="99.029762"
       id="rect12-2" />
    <rect
       x="38.55357"
       y="64.255951"
       width="140.60715"
       height="99.029762"
       id="rect11048" />
    <rect
       x="38.55357"
       y="64.255951"
       width="140.60715"
       height="99.029762"
       id="rect12-4-2" />
    <rect
       x="38.55357"
       y="64.255951"
       width="140.60715"
       height="99.029762"
       id="rect11081" />
  </defs>
  <metadata
     id="metadata9020">
    <rdf:RDF>
      <cc:Work
         rdf:about="">
        <dc:format>image/svg+xml</dc:format>
        <dc:type
           rdf:resource="http://purl.org/dc/dcmitype/StillImage" />
        <dc:title></dc:title>
      </cc:Work>
    </rdf:RDF>
  </metadata>
  <g
     id="layer1"
     transform="translate(100.1592,-310.6579)">
    <circle
       style="fill:#ffffff;fill-opacity:1;stroke:none;stroke-width:5.52204;stroke-linecap:round;stroke-linejoin:round;stroke-miterlimit:4;stroke-dasharray:none;stroke-dashoffset:0;stroke-opacity:1;paint-order:stroke fill markers"
       id="path1104-8"
       cx="-360.35629"
       cy="-36.693733"
       r="49.698391"
       transform="rotate(-90)" />
    <g
       id="g11142"
       transform="translate(151.62002,26.518657)">
      <path
         style="fill:#1589a4;fill-opacity:1;stroke:none;stroke-width:0.32104px;stroke-linecap:butt;stroke-linejoin:miter;stroke-opacity:1"
         d="m -158.89173,338.32715 5.51309,-1.94581 c 0,0 0.9729,-4.37804 -1.2972,-5.02664 -2.27009,-0.6486 -5.18879,-1.13505 -6.97245,-1.13505 -1.78365,0 -3.08085,0.6486 -4.54019,0.81075 -1.45936,0.16214 -5.02665,0.81074 -9.0804,0.81074 -4.05374,0 -7.13459,-0.16214 -8.59393,-0.32429 -1.45935,-0.16215 -55.29309,7.62104 -55.29309,7.62104 l -9.08039,23.67387 76.69686,4.5402 18.16079,-9.89114 6.16169,-8.59394 z"
         id="path2241" />
      <g
         id="g11127"
         transform="translate(-22.45064,33.141421)">
        <g
           aria-label="Bottle 
"
           transform="matrix(3.5395813,0,0,3.5395813,-360.88315,72.056434)"
           id="text10-2-7"
           style="font-style:normal;font-variant:normal;font-weight:normal;font-stretch:normal;font-size:10.5833px;line-height:1.25;font-family:'Cooper Black';-inkscape-font-specification:'Cooper Black, ';white-space:pre;shape-inside:url(#rect12-8-5);fill:#ffffff;fill-opacity:1;stroke:none;stroke-width:3.05122;stroke-miterlimit:4;stroke-dasharray:none;stroke-opacity:1;paint-order:stroke fill markers">
          <path
             id="path11153"
             style="fill:#ffffff;fill-opacity:1;stroke:#1589a4;stroke-width:40.819;stroke-linecap:round;stroke-linejoin:round;stroke-miterlimit:4;stroke-dasharray:none;stroke-opacity:1;paint-order:stroke fill markers"
             d="m 78.6875,216.15039 c -2.580936,0 -5.460536,0.0465 -8.640625,0.13867 -10.139394,0.27648 -16.93792,0.41602 -20.394531,0.41602 -4.700992,0 -9.07901,-0.093 -13.134766,-0.27735 -2.44267,-0.13823 -4.44863,-0.20703 -6.015625,-0.20703 -2.857467,0 -5.207256,0.64508 -7.050781,1.93555 -1.797443,1.29046 -2.695313,2.94868 -2.695313,4.97656 0,2.48876 1.520677,4.37945 4.5625,5.66992 2.627063,1.15221 4.28528,2.6264 4.976563,4.42383 0.737392,1.75135 1.107422,5.32449 1.107422,10.7168 0,14.70212 -0.438733,27.07583 -1.314453,37.12305 -0.599181,6.45234 -1.151269,10.6686 -1.658203,12.65039 -0.506971,1.9357 -1.429071,3.36535 -2.765626,4.28711 -2.304404,1.56702 -3.756315,2.71964 -4.355468,3.45703 -0.599154,0.73741 -0.898438,1.75055 -0.898438,3.04101 0,1.98179 0.804883,3.6865 2.417969,5.11524 1.659177,1.42873 3.895656,2.14453 6.707031,2.14453 1.152207,0 3.065172,-0.11525 5.738282,-0.3457 2.995732,-0.18435 7.741808,-0.3238 14.240234,-0.41602 l 9.263672,-0.0684 c 1.382646,0.046 5.11558,0.18361 11.199218,0.41406 6.682784,0.23046 10.876772,0.34571 12.582032,0.34571 12.535973,0 22.007806,-3.61767 28.414066,-10.85352 4.83925,-5.48448 7.25976,-11.54494 7.25976,-18.18164 0,-5.62275 -1.5914,-10.30006 -4.77148,-14.0332 -3.08791,-3.59488 -6.52156,-6.15292 -10.30078,-7.67383 -1.93571,-0.78349 -2.90235,-1.75209 -2.90235,-2.9043 0,-1.06002 0.80684,-2.23492 2.41992,-3.52539 2.25833,-1.79743 4.05407,-4.19372 5.39063,-7.18945 1.33655,-3.04182 2.00586,-6.15194 2.00586,-9.33203 0,-6.40626 -2.25876,-11.52234 -6.77539,-15.34766 -2.76529,-2.3505 -6.037183,-4.01067 -9.816408,-4.97851 -3.733142,-1.01395 -8.665201,-1.52149 -14.794922,-1.52149 z m 294.08984,0.41602 c -2.3044,0 -5.9928,0.43678 -11.0625,1.3125 -5.06969,0.87567 -9.19491,1.79777 -12.375,2.76562 -4.74707,1.42873 -8.20299,2.9959 -10.36914,4.70117 -2.16614,1.65917 -3.25,3.61863 -3.25,5.87696 0,1.42873 0.34583,2.64816 1.03711,3.66211 0.73741,0.96785 2.07406,2.00521 4.00977,3.11132 2.58091,1.56701 4.19458,3.96329 4.83984,7.18946 0.64526,3.22616 0.96875,10.46347 0.96875,21.70898 0,11.06116 -0.37003,19.58667 -1.10742,25.57813 -0.41479,3.5027 -1.52092,5.64618 -3.31836,6.42968 -1.93569,0.82958 -3.20358,1.54343 -3.80273,2.14258 -0.55305,0.59915 -0.82813,1.45248 -0.82813,2.5586 0,1.38264 0.52981,2.71929 1.58985,4.00976 1.06002,1.24437 2.41894,2.16647 4.07812,2.76563 3.59487,1.33655 9.83936,2.0039 18.73438,2.0039 7.88108,0 13.48243,-0.50754 16.80078,-1.52148 1.79743,-0.50697 3.22512,-1.38257 4.28515,-2.62695 1.10612,-1.24439 1.66016,-2.62559 1.66016,-4.14649 0,-1.19826 -0.30124,-2.12036 -0.90039,-2.76562 -0.55306,-0.64526 -1.68146,-1.33683 -3.38672,-2.07422 -1.98183,-0.87568 -3.13445,-2.11934 -3.45703,-3.73243 -0.27657,-1.61308 -0.41406,-7.3297 -0.41406,-17.14648 v -22.19141 c 0.0921,-6.86713 0.43795,-14.42405 1.03711,-22.67382 0.46091,-5.30014 0.6914,-8.68925 0.6914,-10.16407 0,-4.51664 -1.81998,-6.77343 -5.46094,-6.77343 z m -134.25586,8.91797 c -1.15219,0 -2.12079,0.20628 -2.90429,0.62109 l -31.66211,19.91015 c -1.01365,0.64524 -1.54347,1.66033 -1.58985,3.04297 v 3.04102 c 0,1.61305 0.18404,2.65041 0.55274,3.11133 0.3687,0.4148 1.22204,0.62109 2.55859,0.62109 h 7.1211 c 1.06,0 1.70509,0.13945 1.93554,0.41602 0.27657,0.23044 0.41407,0.87552 0.41407,1.93554 v 31.93946 c 0,6.82105 2.23647,12.32746 6.70703,16.52148 4.47055,4.14793 10.39152,6.22266 17.76562,6.22266 9.30981,0 17.23673,-2.78857 23.78125,-8.36524 3.13399,-2.62702 4.70117,-5.36909 4.70117,-8.22656 0,-1.567 -0.46105,-3.01891 -1.38281,-4.35547 -0.92177,-1.33655 -1.9349,-2.00586 -3.04101,-2.00586 -0.69128,0 -1.38285,0.20824 -2.07422,0.62305 -2.94964,1.65917 -5.32366,2.48828 -7.1211,2.48828 -2.12005,0 -3.87126,-0.8756 -5.2539,-2.62695 -1.33656,-1.75134 -2.00391,-4.0101 -2.00391,-6.77539 v -23.36524 c 0,-1.29043 0.23049,-2.16604 0.69141,-2.62695 0.46088,-0.46092 1.33649,-0.69141 2.62695,-0.69141 h 12.51172 c 1.70522,0 2.88013,-0.41453 3.52539,-1.24414 0.64526,-0.87567 0.96875,-2.42058 0.96875,-4.63281 v -4.07812 c 0,-2.02788 -0.25283,-3.34226 -0.75977,-3.94141 -0.50697,-0.64526 -1.6131,-0.9668 -3.31836,-0.9668 h -12.78906 c -1.42869,0 -2.37502,-0.20824 -2.83594,-0.62305 -0.4148,-0.41479 -0.62109,-1.31266 -0.62109,-2.69531 v -9.33398 c 0,-1.56704 -0.20824,-2.6044 -0.62305,-3.11133 -0.3687,-0.55304 -1.12905,-0.82812 -2.28125,-0.82812 z m 65.53711,0 c -1.15219,0 -2.11884,0.20628 -2.90234,0.62109 l -31.66406,19.91015 c -1.01365,0.64524 -1.54347,1.66033 -1.58985,3.04297 v 3.04102 c 0,1.61305 0.18404,2.65041 0.55274,3.11133 0.3687,0.4148 1.22204,0.62109 2.55859,0.62109 h 7.1211 c 1.06001,0 1.70509,0.13945 1.93554,0.41602 0.27657,0.23044 0.41407,0.87552 0.41407,1.93554 v 31.93946 c 0,6.82105 2.23648,12.32746 6.70703,16.52148 4.47055,4.14793 10.39151,6.22266 17.76562,6.22266 9.3098,0 17.23673,-2.78857 23.78125,-8.36524 3.134,-2.62702 4.70117,-5.36909 4.70117,-8.22656 0,-1.567 -0.46104,-3.01891 -1.38281,-4.35547 -0.92176,-1.33655 -1.9349,-2.00586 -3.04102,-2.00586 -0.69136,0 -1.38293,0.20824 -2.07421,0.62305 -2.94964,1.65917 -5.32365,2.48828 -7.1211,2.48828 -2.12005,0 -3.87127,-0.8756 -5.2539,-2.62695 -1.33656,-1.75134 -2.00391,-4.0101 -2.00391,-6.77539 v -23.36524 c 0,-1.29043 0.23049,-2.16604 0.69141,-2.62695 0.46088,-0.46092 1.33648,-0.69141 2.62695,-0.69141 h 12.51172 c 1.70523,0 2.88208,-0.41453 3.52734,-1.24414 0.64526,-0.87567 0.9668,-2.42058 0.9668,-4.63281 v -4.07812 c 0,-2.02788 -0.25283,-3.34226 -0.75977,-3.94141 -0.50697,-0.64526 -1.6131,-0.9668 -3.31836,-0.9668 h -12.78906 c -1.4287,0 -2.37502,-0.20824 -2.83594,-0.62305 -0.4148,-0.41479 -0.62109,-1.31266 -0.62109,-2.69531 v -9.33398 c 0,-1.56704 -0.20824,-2.6044 -0.62305,-3.11133 -0.3687,-0.55304 -1.12904,-0.82812 -2.28125,-0.82812 z m -236.224606,4.21679 c 3.041824,0 5.391613,1.19716 7.050782,3.59375 1.659177,2.3505 2.490234,5.69311 2.490234,10.02539 0,4.47055 -0.806836,7.76471 -2.419922,9.88477 -1.613086,2.07396 -4.124636,3.11133 -7.535156,3.11133 -1.428729,0 -2.443815,-0.46106 -3.042969,-1.38282 -0.553044,-0.92176 -0.828125,-2.51121 -0.828125,-4.76953 v -14.24218 c 0,-2.35046 0.299284,-3.96218 0.898438,-4.8379 0.645227,-0.92176 1.773633,-1.38281 3.386718,-1.38281 z m 97.683596,12.375 c -12.12119,0 -22.42213,3.63995 -30.90235,10.92188 -8.11152,6.91322 -12.16601,15.80874 -12.16601,26.68554 0,9.77069 3.31838,17.69762 9.95508,23.78125 6.82104,6.26799 15.73883,9.40235 26.7539,9.40235 11.2916,0 21.31552,-3.34261 30.07227,-10.02539 9.17154,-7.0054 13.75781,-15.50864 13.75781,-25.50977 0,-5.71493 -1.42964,-11.19908 -4.28711,-16.45312 -2.76529,-5.02361 -6.42946,-9.10233 -10.99219,-12.23633 -6.36016,-4.37838 -13.75727,-6.56641 -22.1914,-6.56641 z m 260.76758,0.0684 c -5.48449,0 -10.57831,0.99087 -15.2793,2.97266 -6.268,2.62702 -11.42862,6.61276 -15.48438,11.95898 -4.70099,6.17581 -7.05273,13.13609 -7.05273,20.87891 0,5.76101 1.36088,11.24516 4.08008,16.45312 2.07397,3.91749 4.70078,7.2601 7.88086,10.02539 6.54451,5.62275 14.65548,8.4336 24.33398,8.4336 9.58634,0 18.04309,-2.74208 25.3711,-8.22657 4.14793,-3.0879 6.22265,-6.29102 6.22265,-9.60937 0,-1.56699 -0.57631,-3.08768 -1.72851,-4.5625 -1.1522,-1.47482 -2.3271,-2.21289 -3.52539,-2.21289 -0.92176,0 -2.16738,0.55209 -3.73438,1.6582 -1.75134,1.24434 -3.98588,2.30592 -6.70508,3.18164 -2.67312,0.82961 -5.11589,1.24414 -7.32812,1.24414 -3.73314,0 -7.23556,-1.31438 -10.50782,-3.9414 -3.22617,-2.67311 -4.83984,-5.50622 -4.83984,-8.50196 0,-1.24438 0.7158,-1.86718 2.14453,-1.86718 H 452.625 c 1.98179,0 3.59351,-0.94438 4.83789,-2.83399 1.24438,-1.93571 1.86719,-4.40271 1.86719,-7.39843 0,-3.68706 -1.08385,-7.46649 -3.25,-11.3379 -1.88961,-3.41052 -4.37694,-6.35889 -7.46485,-8.84765 -6.12973,-4.97752 -13.57333,-7.4668 -22.33007,-7.4668 z m -0.69141,12.44336 c 2.3044,0 4.17087,0.78457 5.59961,2.35156 1.42873,1.567 2.14258,3.59523 2.14258,6.08399 0,2.7192 -1.47419,4.07812 -4.42383,4.07812 h -6.98242 c -1.65922,0 -2.83411,-0.27703 -3.52539,-0.83008 -0.64527,-0.55306 -0.96875,-1.51969 -0.96875,-2.90234 0,-1.9357 0.69157,-3.84866 2.07422,-5.73828 1.47482,-2.02787 3.50304,-3.04297 6.08398,-3.04297 z m -265.60547,3.45703 c 2.7192,0.0922 4.83847,1.70585 6.35938,4.83985 1.47482,3.0879 2.71848,7.09786 3.73242,12.02929 1.06003,4.93143 1.58984,9.33172 1.58984,13.20313 0,5.20796 -2.05049,7.8125 -6.15234,7.8125 -3.22617,0 -5.55369,-1.89069 -6.98242,-5.66992 -1.42874,-3.68706 -2.6724,-7.90332 -3.73243,-12.65039 -1.01394,-4.79318 -1.52148,-8.57261 -1.52148,-11.3379 0,-2.48876 0.59859,-4.47049 1.79687,-5.94531 1.24439,-1.52091 2.88228,-2.28125 4.91016,-2.28125 z M 68.939453,269.6602 c 7.83499,0 11.753906,5.11412 11.753906,15.3457 0,8.20369 -3.502416,12.30664 -10.507812,12.30664 -2.673163,0 -4.448588,-0.99087 -5.324219,-2.97266 -0.87572,-1.98179 -1.3125,-5.99175 -1.3125,-12.02929 v -6.56836 c 0,-2.30437 0.390327,-3.89381 1.173828,-4.76953 0.783502,-0.87572 2.188924,-1.3125 4.216797,-1.3125 z"
             transform="matrix(0.0747499,0,0,0.0747499,37.166655,50.554357)" />
        </g>
        <g
           aria-label="Spin 
"
           transform="matrix(4.5747202,0,0,4.5747202,-399.06412,-37.075397)"
           id="text10-8"
           style="font-style:normal;font-variant:normal;font-weight:normal;font-stretch:normal;font-size:10.5833px;line-height:1.25;font-family:'Cooper Black';-inkscape-font-specification:'Cooper Black, ';white-space:pre;shape-inside:url(#rect12-2);fill:#fffffe;fill-opacity:1;stroke:none;stroke-width:2.36081;stroke-miterlimit:4;stroke-dasharray:none;stroke-dashoffset:0;stroke-opacity:1;paint-order:stroke fill markers">
          <path
             id="path11166"
             style="fill:#fffffe;fill-opacity:1;stroke:#1589a4;stroke-width:40.819;stroke-linecap:round;stroke-linejoin:bevel;stroke-miterlimit:4;stroke-dasharray:none;stroke-dashoffset:0;stroke-opacity:1;paint-order:stroke fill markers"
             d="m 82.609375,62.806641 c -14.415092,-1.2e-5 -26.625647,4.198775 -36.632813,12.597656 -4.467485,3.633552 -7.923005,7.951501 -10.365234,12.955078 -2.442217,4.944018 -3.664062,10.037437 -3.664062,15.279295 0,10.60283 4.705684,20.07475 14.117187,28.41406 3.871813,3.3953 8.04228,6.22477 12.509766,8.48829 4.467486,2.20396 10.960505,4.64568 19.478515,7.32617 4.824888,1.48916 8.308739,3.09679 10.453125,4.82422 2.144399,1.72742 3.216797,3.78335 3.216797,6.16601 0,2.56136 -1.369315,4.6759 -4.109375,6.34375 -2.74006,1.6083 -6.314741,2.41211 -10.722656,2.41211 -5.122718,0 -10.096987,-1.10268 -14.921875,-3.30664 -4.765317,-2.20396 -8.249167,-4.97287 -10.453125,-8.30859 -4.646187,-7.08842 -7.594809,-11.28721 -8.845703,-12.59766 -2.084828,-2.3231 -4.257956,-3.48633 -6.521484,-3.48633 -2.263529,0 -4.141706,0.95325 -5.63086,2.85938 -1.191335,1.48916 -1.785156,3.69452 -1.785156,6.61328 0,6.07577 1.131003,12.32853 3.394531,18.76172 2.323088,6.37361 4.914248,10.51379 7.773438,12.41992 3.752694,2.44223 9.857966,4.58704 18.316406,6.43359 8.45844,1.787 16.500493,2.67969 24.125,2.67969 17.095581,0 30.944033,-4.10991 41.546873,-12.33008 10.36457,-8.04148 15.54688,-18.40609 15.54688,-31.09375 0,-14.35552 -7.59375,-25.22508 -22.78321,-32.61133 -3.45486,-1.66786 -11.34748,-4.31957 -23.677731,-7.95312 -9.113672,-2.62093 -13.671875,-6.522801 -13.671875,-11.705079 0,-2.62093 0.983522,-4.735454 2.949219,-6.34375 2.025257,-1.608296 4.705294,-2.412109 8.041016,-2.412109 6.909715,0 13.939911,3.336357 21.087891,10.007812 5.06315,4.705769 8.33896,7.535246 9.82812,8.488286 1.48916,0.95304 3.42398,1.42968 5.80664,1.42968 2.8592,0 5.2726,-1.13295 7.23829,-3.39648 2.02526,-2.323089 3.03711,-5.152561 3.03711,-8.488282 0,-5.718381 -2.23369,-11.734775 -6.70118,-18.048829 -4.40792,-6.314041 -8.6067,-9.470703 -12.59765,-9.470703 -1.07222,0 -2.08602,0.179662 -3.03907,0.53711 -2.97828,1.072228 -4.76366,1.607422 -5.35937,1.607422 -0.71479,0 -1.66804,-0.177709 -2.85937,-0.535157 -9.947599,-3.037891 -17.989653,-4.55664 -24.125005,-4.55664 z m 217.656245,2.501953 c -6.49275,0 -13.46239,1.488477 -20.9082,4.466797 -7.32667,2.91876 -10.99023,6.939781 -10.99023,12.0625 0,3.812253 1.72679,6.789207 5.18164,8.933593 2.56136,1.667867 6.01688,2.501954 10.36523,2.501954 10.30501,0 19.09032,-2.114525 26.35742,-6.34375 4.58662,-2.68049 6.88086,-6.313775 6.88086,-10.900391 0,-3.276163 -1.51875,-5.867311 -4.55664,-7.773438 -3.03789,-1.965686 -7.1478,-2.947265 -12.33008,-2.947265 z M 227.08789,98.1875 c -3.21659,0 -6.81959,0.595774 -10.81055,1.787109 -3.93139,1.131761 -7.17887,2.561641 -9.74023,4.289061 -3.39525,2.26353 -5.39062,3.39649 -5.98633,3.39649 -1.42959,0 -2.14453,-1.10269 -2.14453,-3.30664 0,-2.50176 -0.4464,-4.05078 -1.33984,-4.646489 -0.8935,-0.655186 -3.15746,-0.982422 -6.79102,-0.982422 -8.57757,0.11913 -20.16208,3.483821 -34.75586,10.095701 -3.75269,1.72743 -6.463,3.51476 -8.13086,5.36133 -1.66786,1.78699 -2.50195,3.8732 -2.50195,6.25586 0,1.9657 0.59577,3.6622 1.78711,5.0918 1.19132,1.36998 2.7384,2.23435 4.64453,2.59179 2.50183,0.47652 3.96198,0.80376 4.37891,0.98243 0.47652,0.17866 0.834,0.5664 1.07226,1.1621 0.6553,1.787 1.1905,10.00681 1.60742,24.66016 -0.35744,17.81039 -0.89264,28.59107 -1.60742,32.34375 -0.65523,3.7527 -2.53145,6.34384 -5.62891,7.77344 -2.14438,1.01256 -3.60453,1.96581 -4.3789,2.85937 -0.71478,0.95307 -1.07227,2.32434 -1.07227,4.11133 0,3.87181 2.472,7.11735 7.41602,9.73828 9.70933,5.18229 21.0272,7.77344 33.95312,7.77344 7.26711,0 12.89577,-0.98352 16.88672,-2.94922 3.99096,-1.90612 5.98828,-4.64475 5.98828,-8.21875 0,-1.60831 -0.29882,-2.77155 -0.89453,-3.48633 -0.5361,-0.65523 -2.26289,-1.96399 -5.18164,-3.92968 -3.15703,-2.08483 -4.73633,-5.48176 -4.73633,-10.1875 0,-3.574 0.89465,-5.35938 2.68164,-5.35938 0.6552,0 1.51762,0.23832 2.58985,0.71485 5.36099,2.38265 10.57357,3.57226 15.63672,3.57226 9.9476,0 18.82374,-3.78077 26.62695,-11.3457 10.1263,-9.70935 15.18945,-22.06933 15.18945,-37.08008 0,-7.02883 -1.31072,-13.73185 -3.93164,-20.10547 -2.50179,-6.07577 -6.01591,-11.10865 -10.54297,-15.09961 -5.95665,-5.24186 -12.71826,-7.86328 -20.2832,-7.86328 z m 184.86328,0.626953 c -9.7689,0 -17.21518,3.691887 -22.33789,11.078127 -1.60829,2.26353 -3.12704,3.39648 -4.55664,3.39648 -2.38266,0 -3.57422,-1.42987 -3.57422,-4.28906 0,-0.35745 0.0299,-0.77543 0.0899,-1.25195 0.0599,-1.31049 0.0898,-2.05376 0.0898,-2.23243 0,-1.78699 -0.62411,-3.33601 -1.875,-4.64648 -1.19134,-1.310464 -2.68175,-1.966796 -4.46875,-1.966796 -1.96569,0 -5.59897,0.714936 -10.90039,2.144536 -5.30142,1.37003 -10.81092,3.06849 -16.5293,5.09374 -6.49274,2.3231 -10.78236,4.25987 -12.86719,5.8086 -2.08482,1.48916 -3.12695,3.42398 -3.12695,5.80664 0,2.32309 1.28044,4.28819 3.8418,5.89648 2.97827,1.84656 4.76562,3.42587 5.36133,4.73633 0.65518,1.2509 0.98242,3.93092 0.98242,8.04102 0,7.4458 -0.20808,14.56489 -0.625,21.35547 -0.35745,5.71839 -0.74518,9.32139 -1.16211,10.81054 -0.41697,1.42954 -1.39854,2.70998 -2.94727,3.8418 -1.90611,1.37002 -3.12795,2.44242 -3.66406,3.2168 -0.47652,0.71479 -0.71484,1.7872 -0.71484,3.21679 0,6.85015 8.28036,10.27539 24.83984,10.27539 10.36457,0 17.98859,-0.83409 22.87305,-2.50195 4.88444,-1.66787 7.32617,-4.25901 7.32617,-7.77344 0,-1.36999 -0.32724,-2.59183 -0.98242,-3.66406 -2.5018,-3.75269 -3.99028,-6.28328 -4.4668,-7.59375 -0.41693,-1.31045 -0.625,-3.72386 -0.625,-7.23828 v -17.68945 c 0,-6.73102 0.74327,-11.3781 2.23242,-13.93946 1.48917,-2.56136 4.22975,-3.84179 8.22071,-3.84179 4.16965,0 7.0294,1.57735 8.57812,4.73437 1.90613,3.93139 2.85938,10.00834 2.85938,18.22852 0,14.17682 -1.19156,22.51579 -3.57422,25.01758 -2.02521,2.20392 -3.21677,3.60351 -3.57422,4.19921 -0.35745,0.5361 -0.53711,1.40047 -0.53711,2.5918 0,3.33572 1.75706,5.74716 5.27148,7.23633 3.3953,1.42959 9.20365,2.14453 17.42383,2.14453 12.09199,0 20.49152,-0.77354 25.19727,-2.32226 4.70575,-1.54874 7.05859,-4.28932 7.05859,-8.22071 0,-1.72745 -0.4464,-3.06844 -1.33984,-4.02148 -3.03793,-3.21654 -4.88583,-5.38967 -5.54102,-6.52149 -0.59571,-1.13176 -0.95319,-2.88882 -1.07226,-5.27148 l -1.25,-31.45117 h -0.002 c -0.3574,-7.32668 -1.28037,-12.86646 -2.76953,-16.61914 -1.48916,-3.81226 -4.1106,-7.11834 -7.86328,-9.91797 -5.36099,-3.93139 -11.79345,-5.896487 -19.29883,-5.896487 z m -98.9082,0.08789 c -4.16964,0 -10.06689,0.894644 -17.69141,2.681637 -7.6245,1.787 -14.77387,3.96013 -21.44531,6.52149 -4.82489,1.84655 -7.23633,4.6477 -7.23633,8.40039 0,3.15702 1.84594,5.53819 5.53906,7.14648 2.97828,1.31047 4.64646,3.18669 5.00391,5.62891 0.11919,0.8935 0.2969,4.05211 0.53516,9.47266 0.29785,5.36097 0.44726,9.02453 0.44726,10.99023 0,6.13535 -0.38773,10.75021 -1.16211,13.84766 -0.77436,3.09746 -2.08312,5.33114 -3.92968,6.70117 -2.68054,1.96574 -4.34872,3.39561 -5.00391,4.28906 -0.65519,0.89351 -0.98242,2.14561 -0.98242,3.75391 0,1.90612 0.6241,3.60264 1.875,5.09179 1.31046,1.48912 3.00892,2.53125 5.09375,3.12696 6.13535,1.66786 14.44404,2.50195 24.92773,2.50195 19.47824,0 29.21875,-3.84131 29.21875,-11.52539 0,-1.42964 -0.32919,-2.59093 -0.98437,-3.48437 -0.59566,-0.95308 -1.81555,-2.08604 -3.66211,-3.39649 -2.26352,-1.6083 -3.78227,-3.36536 -4.55664,-5.27148 -0.71478,-1.90613 -1.07227,-4.91335 -1.07227,-9.02344 v -51.91211 c 0,-3.69312 -1.6379,-5.541017 -4.91406,-5.541017 z M 206,124.09961 c 2.97832,0 5.54115,1.10268 7.68555,3.30664 3.45485,3.57399 5.18164,9.73787 5.18164,18.49414 0,13.52159 -4.1099,20.2832 -12.33008,20.2832 -2.68049,0 -4.8253,-0.56544 -6.43359,-1.69726 -1.6083,-1.13175 -2.41211,-2.62218 -2.41211,-4.46875 0,-0.95307 0.0299,-1.93463 0.0898,-2.94727 l 1.33984,-24.57226 c 0.35741,-5.59925 2.64968,-8.39844 6.87891,-8.39844 z"
             transform="matrix(0.05783596,0,0,0.05783596,37.102896,62.970646)" />
        </g>
        <g
           aria-label="the
"
           transform="matrix(1.171902,0,0,1.171902,-215.21708,223.07768)"
           id="text10-5-2"
           style="font-style:normal;font-variant:normal;font-weight:normal;font-stretch:normal;font-size:10.5833px;line-height:1.25;font-family:'Cooper Black';-inkscape-font-specification:'Cooper Black, ';white-space:pre;shape-inside:url(#rect12-4-2);fill:#ffffff;fill-opacity:1;stroke:none;stroke-width:0.0853314;stroke-miterlimit:4;stroke-dasharray:none;stroke-opacity:1;paint-order:stroke fill markers">
          <path
             d="m 41.818674,70.008557 v 1.746658 q 0,0.310058 0.149862,0.506427 0.155028,0.19637 0.392739,0.19637 0.201538,0 0.532266,-0.186034 0.07751,-0.04651 0.155029,-0.04651 0.124023,0 0.227375,0.149861 0.103353,0.149861 0.103353,0.325561 0,0.320393 -0.351399,0.614947 -0.733803,0.625283 -1.777663,0.625283 -0.826821,0 -1.328081,-0.465086 -0.501259,-0.470254 -0.501259,-1.235063 v -2.387444 q 0,-0.118855 -0.03101,-0.144693 -0.02584,-0.03101 -0.144694,-0.03101 h -0.532265 q -0.149861,0 -0.191202,-0.04651 -0.04134,-0.05168 -0.04134,-0.232543 v -0.227375 q 0.0052,-0.155029 0.118855,-0.227376 l 2.366773,-1.488276 q 0.08785,-0.04651 0.21704,-0.04651 h 0.418578 q 0.129191,0 0.170532,0.06201 0.04651,0.05684 0.04651,0.232544 v 0.697629 q 0,0.155029 0.04651,0.201538 0.05168,0.04651 0.211873,0.04651 h 0.956011 q 0.191202,0 0.248046,0.07235 0.05684,0.06718 0.05684,0.294555 v 0.30489 q 0,0.248046 -0.07235,0.346231 -0.07235,0.09302 -0.263549,0.09302 h -0.93534 q -0.144694,0 -0.19637,0.05168 -0.05168,0.05168 -0.05168,0.19637 z"
             style="fill:#ffffff;fill-opacity:1;stroke:none;stroke-width:0.0853314;stroke-miterlimit:4;stroke-dasharray:none;stroke-opacity:1;paint-order:stroke fill markers"
             id="path11175" />
          <path
             d="m 46.557389,67.000998 -0.06718,2.165236 q -0.01033,0.387572 0.237711,0.387572 0.124023,0 0.242879,-0.170532 0.501259,-0.728635 1.338415,-0.728635 0.821653,0 1.30741,0.50126 0.21704,0.222208 0.30489,0.527098 0.09302,0.30489 0.103352,0.873329 l 0.04651,1.865513 q 0.0052,0.242878 0.06201,0.356566 0.06201,0.113688 0.279052,0.28422 0.149861,0.118855 0.149861,0.284219 0,0.558104 -1.684646,0.558104 -1.498612,0 -1.498612,-0.521931 0,-0.08785 0.02584,-0.134358 0.02584,-0.04651 0.180867,-0.248046 0.217041,-0.284219 0.217041,-1.421097 0,-0.687295 -0.129191,-1.00252 -0.170532,-0.428913 -0.60978,-0.428913 -0.315225,0 -0.465086,0.227376 -0.108521,0.165364 -0.108521,0.620115 v 0.997352 q 0.03617,0.661456 0.06201,0.749306 0.02584,0.08785 0.237711,0.32556 0.09819,0.10852 0.09819,0.253214 0,0.583942 -1.519283,0.583942 -1.777663,0 -1.777663,-0.604613 0,-0.139525 0.05684,-0.211872 0.05684,-0.07752 0.279052,-0.232543 0.196369,-0.139526 0.268716,-0.749306 0.07751,-0.614948 0.07751,-2.030878 0,-1.111039 -0.06201,-1.539952 -0.02067,-0.160197 -0.07751,-0.232544 -0.05168,-0.07751 -0.201538,-0.155028 -0.320393,-0.165364 -0.320393,-0.382405 0,-0.258381 0.242879,-0.418578 0.242878,-0.160196 0.930173,-0.346231 0.930172,-0.258381 1.483108,-0.258381 0.299723,0 0.289388,0.258381 z"
             style="fill:#ffffff;fill-opacity:1;stroke:none;stroke-width:0.0853314;stroke-miterlimit:4;stroke-dasharray:none;stroke-opacity:1;paint-order:stroke fill markers"
             id="path11177" />
          <path
             d="m 55.642076,71.486498 h -2.428784 q -0.160197,0 -0.160197,0.139526 0,0.335896 0.361734,0.635618 0.366902,0.294555 0.785479,0.294555 0.248046,0 0.547769,-0.09302 0.30489,-0.09819 0.50126,-0.237711 0.175699,-0.124023 0.279051,-0.124023 0.134359,0 0.263549,0.165364 0.129191,0.165364 0.129191,0.341063 0,0.37207 -0.465086,0.718301 -0.821653,0.614947 -1.896519,0.614947 -1.085202,0 -1.819005,-0.63045 -0.356566,-0.310058 -0.589109,-0.749306 -0.30489,-0.583942 -0.30489,-1.229895 0,-0.868162 0.527098,-1.560624 0.454751,-0.599444 1.157548,-0.893999 0.527098,-0.222208 1.142045,-0.222208 0.98185,0 1.669144,0.558104 0.346231,0.279052 0.558104,0.661456 0.242878,0.434081 0.242878,0.847491 0,0.335895 -0.139526,0.552936 -0.139526,0.211872 -0.361734,0.211872 z M 53.34765,70.520152 h 0.52193 q 0.330728,0 0.330728,-0.30489 0,-0.279052 -0.160196,-0.454751 -0.160196,-0.175699 -0.418578,-0.175699 -0.289387,0 -0.454751,0.227375 -0.155029,0.211873 -0.155029,0.428913 0,0.155029 0.07235,0.217041 0.07751,0.06201 0.263549,0.06201 z"
             style="fill:#ffffff;fill-opacity:1;stroke:none;stroke-width:0.0853314;stroke-miterlimit:4;stroke-dasharray:none;stroke-opacity:1;paint-order:stroke fill markers"
             id="path11179" />
        </g>
      </g>
    </g>
  </g>
</svg>
